<svg xmlns="http://www.w3.org/2000/svg" viewBox="0 0 512 512">
    <path d="M492.16 245.493c-6.613-.96-12.16 4.16-12.16 10.56 0 31.36-6.4 62.4-18.987 91.2-.747-.213-1.6-.427-2.347-.533H369.6c1.067-3.307 2.347-6.613 3.307-10.027 1.6-5.653-1.707-11.52-7.36-13.227-5.653-1.6-11.52 1.707-13.227 7.36-1.493 5.333-3.413 10.667-5.333 15.893H143.04a280.81 280.81 0 0 1 0-181.333h112.64c5.333 0 10.133-3.84 10.88-9.067.96-6.613-4.16-12.267-10.56-12.267H151.253c19.733-45.44 51.52-84.693 91.84-113.493 9.707 6.72 18.987 13.973 27.733 21.867 1.92 1.813 4.48 2.773 7.147 2.773.213 0 .427-.107.64-.107 3.093.213 6.187-1.067 8.32-3.307 3.947-4.373 3.627-11.093-.747-15.04-3.307-2.987-6.827-5.653-10.24-8.533 7.68.853 15.36 2.133 22.933 3.733 5.76 1.173 11.413-2.667 12.48-8.427 1.067-5.653-2.453-11.093-8-12.373-17.28-3.84-34.987-5.76-52.693-5.76-2.987 0-5.973.107-9.707.213-.107 0-.32.107-.427.107C105.493 11.467 0 121.227 0 256.053 0 391.093 106.027 501.067 241.387 506.4h.213c.853 0 1.707 0 2.667.107.32 0 .747.107 1.067.107.32 0 .64-.107.853-.107 1.493 0 2.987.107 4.48.107 138.133 0 250.453-112.213 250.667-250.24-.001-5.334-3.841-10.134-9.174-10.881zM208 31.093c-35.2 30.827-62.613 69.547-79.893 112.96h-77.44C83.733 84.96 141.44 43.573 208 31.093zM40.533 347.253c-25.28-58.24-25.28-124.16 0-182.293.747.213 1.6.427 2.347.427h77.867a303.906 303.906 0 0 0 0 181.333H42.88c-.853.107-1.6.213-2.347.533zm10.134 20.8h77.547c17.28 43.413 44.693 82.133 79.893 112.96-66.667-12.48-124.267-53.866-157.44-112.96zm192.96 113.814c-40.64-28.8-72.533-68.16-92.373-113.813H338.56c-20.587 45.866-53.44 85.226-94.933 113.813zm32.533 2.026c37.653-30.933 67.093-70.827 85.653-115.84h88.853c-35.306 62.934-99.519 107.52-174.506 115.84z"/>
    <path d="M363.52 250.933c14.507 20.587 31.04 43.947 31.147 53.013v.213c.107 5.867 4.8 10.56 10.667 10.56h.107c5.867 0 10.56-4.8 10.56-10.56v-.32c0-9.067 16.64-32.64 31.36-53.547C476.16 209.44 512 158.56 512 111.307c0-58.347-47.893-105.92-106.667-105.92-58.773 0-106.667 47.467-106.667 105.92.001 47.68 35.947 98.666 64.854 139.626zM405.333 26.72c47.04 0 85.333 37.973 85.333 84.587 0 40.427-33.707 88.32-60.693 126.72-9.92 13.973-18.453 26.24-24.64 36.8-6.187-10.453-14.613-22.4-24.32-36.16-27.2-38.507-60.907-86.4-60.907-127.36C320 64.693 358.293 26.72 405.333 26.72z"/>
    <path d="M405.333 165.387c29.44 0 53.333-23.893 53.333-53.333S434.773 58.72 405.333 58.72 352 82.613 352 112.053s23.893 53.334 53.333 53.334zm0-85.334c17.707 0 32 14.293 32 32s-14.293 32-32 32-32-14.293-32-32 14.294-32 32-32z"/>
</svg>
